<?xml version="1.0" standalone="no"?>
<!DOCTYPE svg PUBLIC "-//W3C//DTD SVG 20010904//EN"
 "http://www.w3.org/TR/2001/REC-SVG-20010904/DTD/svg10.dtd">
<svg version="1.0" xmlns="http://www.w3.org/2000/svg"
 width="519.000000pt" height="519.000000pt" viewBox="0 0 519.000000 519.000000"
 preserveAspectRatio="xMidYMid meet">
<metadata>
Created by potrace 1.11, written by Peter Selinger 2001-2013
</metadata>
<g transform="translate(0.000000,519.000000) scale(0.100000,-0.100000)"
fill="#000000" stroke="none">
<path d="M2420 4773 c-35 -3 -156 -19 -220 -29 -254 -40 -577 -165 -818 -317
-63 -39 -63 -39 -40 -55 39 -26 96 -89 123 -137 15 -25 29 -45 31 -45 2 0 46
24 97 53 205 119 476 218 664 243 26 3 51 8 54 10 12 7 206 18 309 17 588 -3
1157 -279 1531 -743 576 -714 591 -1720 38 -2458 -64 -85 -218 -249 -296 -314
-119 -101 -310 -224 -449 -289 -116 -55 -149 -88 -152 -149 -5 -73 41 -130
109 -135 59 -4 134 25 284 108 505 283 867 716 1053 1259 40 115 76 256 87
338 3 25 8 56 10 70 14 84 17 122 19 280 4 254 -19 435 -85 665 -148 516 -485
970 -939 1267 -127 83 -240 142 -385 201 -94 39 -246 88 -311 101 -10 3 -39 9
-64 15 -64 14 -148 28 -225 37 -57 7 -372 12 -425 7z"/>
<path d="M1005 4375 c-79 -18 -143 -55 -196 -114 -134 -149 -126 -383 17 -519
189 -179 492 -120 602 117 23 48 26 70 27 151 0 82 -4 103 -27 152 -77 165
-251 253 -423 213z m203 -100 c109 -50 167 -143 166 -265 -1 -120 -59 -212
-166 -263 -143 -68 -312 -6 -386 143 -55 108 -30 240 60 326 96 93 208 113
326 59z"/>
<path d="M675 3712 c-61 -96 -182 -351 -219 -462 -42 -125 -82 -283 -91 -360
-4 -30 -8 -57 -10 -60 -8 -13 -19 -184 -19 -295 0 -112 9 -284 18 -330 2 -11
7 -40 11 -65 43 -266 142 -534 290 -787 32 -54 68 -110 79 -124 12 -15 30 -39
41 -55 88 -123 260 -304 389 -408 94 -75 221 -166 233 -166 3 0 14 -7 22 -14
9 -8 83 -49 164 -90 102 -51 157 -73 175 -71 15 2 32 4 38 4 17 1 74 59 84 87
27 70 -1 132 -74 164 -265 114 -511 291 -689 496 -104 119 -117 135 -189 244
-98 146 -213 388 -244 510 -2 8 -11 42 -20 75 -18 66 -22 83 -30 134 -3 18 -8
43 -10 55 -29 150 -33 425 -8 591 11 78 15 96 29 165 37 174 163 487 244 605
12 17 21 35 21 40 0 6 -21 23 -48 39 -26 16 -70 53 -99 82 l-52 53 -36 -57z"/>
<path d="M2050 2526 c0 -465 3 -846 7 -846 3 0 61 31 127 69 67 38 173 98 236
134 63 35 133 75 155 87 22 13 65 36 95 53 30 17 67 38 82 49 14 10 29 18 32
18 3 0 40 20 82 45 41 25 77 45 79 45 2 0 39 20 82 45 43 25 89 52 103 60 14
8 112 63 217 122 106 59 193 110 193 113 0 5 -37 27 -185 108 -33 19 -85 49
-115 67 -30 18 -80 46 -110 63 -30 16 -120 67 -200 112 -80 46 -165 94 -190
108 -25 14 -142 80 -260 147 -206 117 -243 138 -355 200 -27 15 -56 32 -62 38
-10 7 -13 -161 -13 -837z"/>
</g>
</svg>
