<svg id="Layer_1" xmlns="http://www.w3.org/2000/svg" viewBox="0 0 257.7 77.3"><style>.st0{fill:#1ed760}</style><path class="st0" d="M38.6 0C17.3 0 0 17.3 0 38.6 0 60 17.3 77.3 38.6 77.3 60 77.3 77.3 60 77.3 38.6 77.3 17.3 60 0 38.6 0zm17.8 55.7c-.7 1.1-2.2 1.5-3.3.8-9.1-5.5-20.5-6.8-34-3.7-1.3.3-2.6-.5-2.9-1.8-.3-1.3.5-2.6 1.8-2.9 14.7-3.4 27.3-1.9 37.5 4.3 1.2.7 1.6 2.2.9 3.3zm4.7-10.5c-.9 1.4-2.7 1.9-4.1 1-10.4-6.4-26.2-8.2-38.5-4.5a3.037 3.037 0 0 1-1.8-5.8c14-4.3 31.5-2.2 43.4 5.1 1.4.9 1.9 2.8 1 4.2zm.4-10.9c-12.5-7.4-33-8.1-44.9-4.5-1.9.6-3.9-.5-4.5-2.4-.6-1.9.5-3.9 2.4-4.5 13.6-4.1 36.3-3.3 50.7 5.2 1.7 1 2.3 3.2 1.3 5-1.1 1.6-3.3 2.2-5 1.2zM105.1 35.7c-6.7-1.6-7.9-2.7-7.9-5.1 0-2.2 2.1-3.7 5.2-3.7 3 0 6 1.1 9.1 3.5.1.1.2.1.3.1.1 0 .2-.1.3-.2l3.3-4.6c.1-.2.1-.4-.1-.6-3.7-3-7.9-4.4-12.8-4.4-7.2 0-12.2 4.3-12.2 10.5 0 6.6 4.3 9 11.8 10.8 6.4 1.5 7.5 2.7 7.5 4.9 0 2.4-2.2 4-5.7 4-3.9 0-7.1-1.3-10.6-4.4-.1-.1-.2-.1-.3-.1-.1 0-.2.1-.3.2L89 50.8c-.2.2-.1.4 0 .6 4.1 3.7 9.2 5.6 14.7 5.6 7.8 0 12.8-4.2 12.8-10.8.1-5.5-3.2-8.6-11.4-10.5zM134.1 29.1c-3.4 0-6.1 1.3-8.4 4V30c0-.2-.2-.4-.4-.4h-6c-.2 0-.4.2-.4.4v34c0 .2.2.4.4.4h6c.2 0 .4-.2.4-.4V53.3c2.3 2.6 5 3.8 8.4 3.8 6.3 0 12.6-4.8 12.6-14s-6.3-14-12.6-14zm5.7 14c0 4.7-2.9 8-7 8s-7.2-3.4-7.2-8c0-4.5 3.1-8 7.2-8 4 .1 7 3.4 7 8zM162.9 29.1c-8.1 0-14.4 6.2-14.4 14.1 0 7.8 6.3 14 14.3 14 8.1 0 14.4-6.2 14.4-14.1 0-7.9-6.2-14-14.3-14zm0 22c-4.3 0-7.5-3.4-7.5-8s3.1-7.9 7.4-7.9c4.3 0 7.6 3.4 7.6 8s-3.1 7.9-7.5 7.9zM194.4 29.6h-6.6v-6.7c0-.2-.2-.4-.4-.4h-6c-.2 0-.4.2-.4.4v6.7h-2.9c-.2 0-.4.2-.4.4v5.1c0 .2.2.4.4.4h2.9v13.3c0 5.4 2.7 8.1 7.9 8.1 2.1 0 3.9-.4 5.6-1.4.1-.1.2-.2.2-.4v-4.9c0-.2-.1-.3-.2-.4-.1-.1-.3-.1-.4 0-1.2.6-2.3.8-3.5.8-1.9 0-2.8-.9-2.8-2.8V35.6h6.6c.2 0 .4-.2.4-.4v-5.1c.1-.3-.1-.5-.4-.5zM217.3 29.7v-.8c0-2.4.9-3.5 3-3.5 1.2 0 2.2.2 3.4.6.1 0 .3 0 .4-.1.1-.1.2-.2.2-.4v-5c0-.2-.1-.4-.3-.4-1.2-.4-2.7-.7-5-.7-5.5 0-8.4 3.1-8.4 9v1.3h-2.9c-.2 0-.4.2-.4.4v5.2c0 .2.2.4.4.4h2.9v20.5c0 .2.2.4.4.4h6c.2 0 .4-.2.4-.4V35.6h5.6l8.5 20.5c-1 2.2-1.9 2.6-3.2 2.6-1.1 0-2.2-.3-3.3-.9-.1-.1-.2-.1-.3 0-.1 0-.2.1-.3.2l-2 4.4c-.1.2 0 .5.2.6 2.1 1.1 4 1.6 6.4 1.6 4.4 0 6.8-2.1 9-7.6l10.4-26.8c.1-.1 0-.3 0-.4-.1-.1-.2-.2-.4-.2h-6.2c-.2 0-.4.1-.4.3L235 48.1l-7-18.2c-.1-.2-.2-.3-.4-.3h-10.3zM204.1 29.6h-6c-.2 0-.4.2-.4.4v26.1c0 .2.2.4.4.4h6c.2 0 .4-.2.4-.4v-26c0-.3-.2-.5-.4-.5z"/><circle class="st0" cx="201.1" cy="22.1" r="4.3"/><g><path class="st0" d="M253.4 38c-2.4 0-4.2-1.9-4.2-4.2 0-2.3 1.9-4.2 4.2-4.2 2.4 0 4.2 1.9 4.2 4.2.1 2.3-1.8 4.2-4.2 4.2zm0-8c-2.2 0-3.8 1.7-3.8 3.8 0 2.1 1.6 3.8 3.8 3.8 2.2 0 3.8-1.7 3.8-3.8 0-2.1-1.6-3.8-3.8-3.8zm1 4.2l1.2 1.7h-1l-1.1-1.5h-.9v1.5h-.8v-4.4h2c1 0 1.7.5 1.7 1.4-.1.7-.5 1.1-1.1 1.3zm-.7-2h-1.1v1.4h1.1c.5 0 .9-.3.9-.7-.1-.4-.4-.7-.9-.7z"/></g></svg>